<?xml version="1.0" encoding="UTF-8"?>
<svg version="1.1" xmlns="http://www.w3.org/2000/svg" width="32" height="32">
<path d="M0 0 C3.92061103 2.19278684 6.97809862 4.95619724 9 9 C10.34009135 20.6039728 10.34009135 20.6039728 7.5078125 25.66796875 C4.31531972 29.30423128 1.94759708 31.77508065 -2.9765625 32.34375 C-14.03729021 32.81744284 -14.03729021 32.81744284 -18.8125 28.625 C-23.61624433 23.64713274 -23.50615879 19.37124985 -23.4921875 12.57421875 C-22.75174943 7.19722801 -20.18398445 4.28471177 -16 1 C-11.26503433 -1.36748284 -5.10642777 -0.70318022 0 0 Z " fill="#02BF64" transform="translate(23,0)"/>
<path d="M0 0 C-0.95043374 1.33897583 -1.91059147 2.67105427 -2.875 4 C-3.40867187 4.7425 -3.94234375 5.485 -4.4921875 6.25 C-4.98976563 6.8275 -5.48734375 7.405 -6 8 C-6.66 8 -7.32 8 -8 8 C-8 9.32 -8 10.64 -8 12 C-7.67 11.01 -7.34 10.02 -7 9 C-6.01 9 -5.02 9 -4 9 C-4.33 10.65 -4.66 12.3 -5 14 C-6.65 13.67 -8.3 13.34 -10 13 C-9.9071875 11.63875 -9.9071875 11.63875 -9.8125 10.25 C-10.01672076 6.71017358 -10.64551835 5.55068845 -13 3 C-10.525 3.495 -10.525 3.495 -8 4 C-7.566875 3.0409375 -7.566875 3.0409375 -7.125 2.0625 C-5.18025038 -1.5028743 -3.54277596 -1.06283279 0 0 Z " fill="#CDEAD5" transform="translate(23,8)"/>
<path d="M0 0 C-2.475 3.465 -2.475 3.465 -5 7 C-5.66 6.34 -6.32 5.68 -7 5 C-6.75 2.4375 -6.75 2.4375 -6 0 C-4 -1 -4 -1 0 0 Z " fill="#C2E8CF" transform="translate(23,8)"/>
</svg>
